<?xml version="1.0" encoding="UTF-8"?>
<svg width="100" height="100" viewBox="0 0 100 100" xmlns="http://www.w3.org/2000/svg">
  <path d="M10,70 Q50,60 90,70 L90,80 L10,80 Z" fill="#D2B48C"/>
  <path d="M20,40 Q50,30 80,40 L80,70 Q50,60 20,70 Z" fill="#DEB887"/>
  <path d="M30,45 A5,5 0 0 1 30,55" stroke="#8B4513" fill="none" stroke-width="2"/>
  <path d="M45,42 A5,5 0 0 1 45,52" stroke="#8B4513" fill="none" stroke-width="2"/>
  <path d="M60,42 A5,5 0 0 1 60,52" stroke="#8B4513" fill="none" stroke-width="2"/>
  <path d="M75,45 A5,5 0 0 1 75,55" stroke="#8B4513" fill="none" stroke-width="2"/>
</svg> 